<svg xmlns="http://www.w3.org/2000/svg" viewBox="0 0 64 64" width="64" height="64">

  <!-- Flames -->
  <path d="
    M 32,21
    C 22,16 25,9 21,3
    C 28,6 27,11 31,14
    C 31,8 28,6 30,1
    C 37,5 34,12 37,15
    C 39,10 37,7 40,4
    C 45,10 42,16 40,19
    C 37,22 34,21 32,21 Z" fill="#e22828"/>
  <path d="
    M 32,20 C 27,16 30,11 28,5
    C 34,9 31,14 35,12
    C 37,16 36,19 32,20 Z" fill="#ff7a18"/>
  <path d="
    M 32,19 C 30,16 32,13 31,10
    C 34,13 32,16 34,15
    C 35,17 34,18 32,19 Z" fill="#ffc224"/>

  <!-- Skull -->
  <path d="
    M 32,16
    C 18,16 10,26 10,38
    C 10,45 13,50 17,52
    L 17,58
    C 17,61 19,63 22,63
    L 42,63
    C 45,63 47,61 47,58
    L 47,52
    C 51,50 54,45 54,38
    C 54,26 46,16 32,16
    Z" fill="#e8e8e8"/>

  <!-- Eye sockets -->
  <ellipse cx="24" cy="39" rx="5.5" ry="6" fill="#1c1c1c"/>
  <ellipse cx="40" cy="39" rx="5.5" ry="6" fill="#1c1c1c"/>
  <circle cx="25.5" cy="37.5" r="1.8" fill="#e22828"/>
  <circle cx="41.5" cy="37.5" r="1.8" fill="#e22828"/>

  <!-- Nasal cavity -->
  <path d="M 32,45 L 29,51 Q 32,53 35,51 Z" fill="#1c1c1c"/>

  <!-- Teeth -->
  <line x1="24" y1="56" x2="24" y2="62" stroke="#1c1c1c" stroke-width="1.5" stroke-linecap="round"/>
  <line x1="28" y1="56" x2="28" y2="62.5" stroke="#1c1c1c" stroke-width="1.5" stroke-linecap="round"/>
  <line x1="32" y1="56" x2="32" y2="62.5" stroke="#1c1c1c" stroke-width="1.5" stroke-linecap="round"/>
  <line x1="36" y1="56" x2="36" y2="62.5" stroke="#1c1c1c" stroke-width="1.5" stroke-linecap="round"/>
  <line x1="40" y1="56" x2="40" y2="62" stroke="#1c1c1c" stroke-width="1.5" stroke-linecap="round"/>
  <line x1="19" y1="56" x2="45" y2="56" stroke="#1c1c1c" stroke-width="1.2" stroke-linecap="round"/>

</svg>
